<svg width="277" height="48" viewBox="0 0 277 48" fill="none" xmlns="http://www.w3.org/2000/svg">
<path d="M0.796 47.104C0.950667 45.6733 1.47267 44.6293 2.362 43.972C3.21267 43.3533 4.334 42.9473 5.726 42.754C7.118 42.5607 8.626 42.464 10.25 42.464C10.946 40.956 11.642 39.1193 12.338 36.954C13.034 34.75 13.6913 32.3913 14.31 29.878C14.9673 27.3647 15.6053 24.8127 16.224 22.222C16.8427 19.5927 17.4227 17.0793 17.964 14.682C18.5053 12.2847 19.008 10.1387 19.472 8.244C19.9747 6.31067 20.4193 4.78333 20.806 3.662C18.7953 3.70067 17.0747 3.75866 15.644 3.836C14.252 3.91333 12.9373 4.02933 11.7 4.184C10.5013 4.33867 9.18667 4.55133 7.756 4.822C8.02667 3.35267 9.09 2.25067 10.946 1.516C12.802 0.742664 15.6827 0.355997 19.588 0.355997C21.5213 0.355997 23.474 0.43333 25.446 0.587997C27.4567 0.742664 29.2933 0.916664 30.956 1.11C32.6187 1.26466 33.8947 1.41933 34.784 1.574C33.856 2.502 32.87 3.082 31.826 3.314C30.8207 3.50733 29.9313 3.604 29.158 3.604C27.9593 3.604 26.8187 3.604 25.736 3.604C24.692 3.604 23.7253 3.62333 22.836 3.662C22.6813 4.474 22.4493 5.75 22.14 7.49C21.8307 9.19133 21.4633 11.1633 21.038 13.406C20.6127 15.61 20.168 17.9107 19.704 20.308C19.24 22.6667 18.776 24.9287 18.312 27.094C17.8867 29.2207 17.4807 31.0573 17.094 32.604C16.4753 35.0787 15.7793 37.1667 15.006 38.868C14.2327 40.5693 13.3047 41.7873 12.222 42.522C14.2327 42.638 16.3787 42.8313 18.66 43.102C20.9413 43.4113 22.9907 43.5853 24.808 43.624C23.6867 44.7453 22.5073 45.4413 21.27 45.712C20.0713 45.9827 19.066 46.118 18.254 46.118C16.7073 46.118 15.18 46.118 13.672 46.118C12.2027 46.1567 10.7333 46.1953 9.264 46.234C7.83333 46.2727 6.40267 46.35 4.972 46.466C3.58 46.6207 2.188 46.8333 0.796 47.104ZM32.9652 44.668C31.3025 44.668 30.0265 44.1847 29.1372 43.218C28.2478 42.2513 27.8032 40.8207 27.8032 38.926C27.8032 37.2247 28.1125 35.1367 28.7312 32.662C29.3885 30.1487 30.2005 27.5773 31.1672 24.948C30.7805 24.8707 30.4132 24.8127 30.0652 24.774C29.7172 24.6967 29.3885 24.6 29.0792 24.484V23.44C29.3885 23.4787 29.7558 23.5173 30.1812 23.556C30.6065 23.5947 31.0898 23.6333 31.6312 23.672C32.4432 21.584 33.3132 19.5733 34.2412 17.64C35.1692 15.668 36.0778 13.928 36.9672 12.42C37.8952 10.8733 38.7652 9.65533 39.5772 8.766C40.4278 7.838 41.1432 7.374 41.7232 7.374C42.0325 7.374 42.3032 7.49 42.5352 7.722C42.8058 7.91533 42.9412 8.22466 42.9412 8.65C42.9412 9.30733 42.5352 10.39 41.7232 11.898C40.9112 13.3673 39.9058 15.1267 38.7072 17.176C37.5085 19.2253 36.3485 21.4487 35.2272 23.846C35.5752 23.846 35.9232 23.846 36.2712 23.846C36.6578 23.846 37.0252 23.846 37.3732 23.846C38.6492 23.846 39.9832 23.8267 41.3752 23.788C42.8058 23.7493 44.2365 23.6527 45.6672 23.498V24.542C43.5405 24.774 41.6265 24.948 39.9252 25.064C38.2625 25.18 36.7738 25.238 35.4592 25.238C35.3045 25.238 35.1498 25.238 34.9952 25.238C34.8792 25.238 34.7438 25.238 34.5892 25.238C33.6998 27.2873 32.9458 29.3947 32.3272 31.56C31.7085 33.7253 31.3992 35.8327 31.3992 37.882C31.3992 39.5447 31.6505 40.7433 32.1532 41.478C32.6558 42.174 33.4872 42.522 34.6472 42.522C36.6578 42.522 38.6298 41.6327 40.5632 39.854C42.4965 38.0753 44.1978 35.6587 45.6672 32.604L46.4212 33.184C45.4932 35.3493 44.3138 37.302 42.8832 39.042C41.4912 40.782 39.9445 42.1547 38.2432 43.16C36.5418 44.1653 34.7825 44.668 32.9652 44.668ZM52.8682 8.592C52.5976 8.39866 52.3462 8.16667 52.1142 7.896C51.8822 7.62533 51.7662 7.316 51.7662 6.968C51.7662 6.46533 52.0369 5.82733 52.5782 5.054C53.1196 4.242 53.6802 3.41066 54.2602 2.56C54.8402 1.70933 55.2269 0.935999 55.4202 0.239998C55.8069 0.239998 56.1356 0.413998 56.4062 0.761999C56.7156 1.07133 56.8702 1.43867 56.8702 1.864C56.8702 2.36667 56.6382 3.00467 56.1742 3.778C55.7102 4.55133 55.1496 5.36333 54.4922 6.214C53.8736 7.06466 53.3322 7.85733 52.8682 8.592ZM56.7814 44.958C54.9641 44.958 53.5141 44.552 52.4314 43.74C51.3874 42.9667 50.6527 42 50.2274 40.84C49.7634 39.68 49.5314 38.52 49.5314 37.36C49.5314 36.2 49.6861 35.3107 49.9954 34.692C50.3047 34.0733 50.6721 33.6093 51.0974 33.3C51.5614 32.9907 51.9867 32.7587 52.3734 32.604C52.7987 32.4493 53.0887 32.2947 53.2434 32.14C54.4034 30.864 55.4667 29.53 56.4334 28.138C57.4001 26.746 58.2507 25.2767 58.9854 23.73V23.034C58.9854 21.6033 59.2174 20.598 59.6814 20.018C60.1841 19.3993 60.7061 19.09 61.2474 19.09C61.5567 19.09 61.7887 19.1673 61.9434 19.322C62.0981 19.4767 62.1754 19.6507 62.1754 19.844C62.1754 20.0373 62.1174 20.3467 62.0014 20.772C61.8854 21.1973 61.8274 21.7387 61.8274 22.396C61.8274 23.672 62.0787 25.064 62.5814 26.572C63.0841 28.0413 63.5867 29.6073 64.0894 31.27C64.5921 32.894 64.8434 34.5953 64.8434 36.374C64.8434 36.8767 64.8047 37.3793 64.7274 37.882C64.6887 38.346 64.6114 38.7907 64.4954 39.216C65.8487 38.984 67.1247 38.3847 68.3234 37.418C69.5221 36.4127 70.6821 34.8273 71.8034 32.662L72.3254 33.242C71.5907 35.3687 70.4887 36.9927 69.0194 38.114C67.5501 39.1967 65.9454 39.8733 64.2054 40.144C63.5867 41.8067 62.6007 43.0247 61.2474 43.798C59.9327 44.5713 58.4441 44.958 56.7814 44.958ZM56.8974 42.928C57.3614 42.928 57.9801 42.7733 58.7534 42.464C59.5267 42.1547 60.1261 41.362 60.5514 40.086C58.9274 39.7767 57.4774 39.1387 56.2014 38.172C54.9641 37.2053 54.0361 36.2387 53.4174 35.272C52.5667 35.3107 52.1414 35.9873 52.1414 37.302C52.1414 38.694 52.5474 39.9893 53.3594 41.188C54.2101 42.348 55.3894 42.928 56.8974 42.928ZM60.8414 39.158C60.9187 38.7713 60.9767 38.3653 61.0154 37.94C61.0541 37.5147 61.0734 37.012 61.0734 36.432C61.0734 34.6147 60.8414 32.8167 60.3774 31.038C59.9521 29.2207 59.5847 27.5193 59.2754 25.934C58.3861 27.4033 57.4387 28.8147 56.4334 30.168C55.4667 31.4827 54.5387 32.5847 53.6494 33.474C54.2294 34.7113 55.1187 35.8713 56.3174 36.954C57.5547 38.0367 59.0627 38.7713 60.8414 39.158ZM88.536 44.726C87.3373 44.726 86.332 44.32 85.52 43.508C84.6693 42.7347 84.244 41.536 84.244 39.912C84.244 38.52 84.5533 37.0313 85.172 35.446C85.7906 33.822 86.6413 32.2367 87.724 30.69C88.8066 29.1047 90.0246 27.674 91.378 26.398C92.77 25.0833 94.22 24.0393 95.728 23.266C97.2746 22.4927 98.802 22.106 100.31 22.106C101.818 22.106 103.075 22.512 104.08 23.324C105.085 24.0973 105.588 25.1413 105.588 26.456C105.588 27.4227 105.317 28.08 104.776 28.428C104.273 28.776 103.597 28.95 102.746 28.95C102.823 28.6407 102.881 28.312 102.92 27.964C102.997 27.5773 103.036 27.2293 103.036 26.92C103.036 26.0307 102.823 25.2767 102.398 24.658C101.973 24.0007 101.238 23.672 100.194 23.672C99.1113 23.672 98.0093 24.0587 96.888 24.832C95.7666 25.5667 94.684 26.572 93.64 27.848C92.596 29.0853 91.668 30.4387 90.856 31.908C90.044 33.3773 89.406 34.8273 88.942 36.258C88.478 37.6887 88.246 38.9647 88.246 40.086C88.246 41.594 88.768 42.348 89.812 42.348C90.7013 42.348 91.668 41.942 92.712 41.13C93.756 40.2793 94.8193 39.216 95.902 37.94C97.0233 36.6253 98.0866 35.272 99.092 33.88C100.097 32.488 100.987 31.212 101.76 30.052C101.915 29.82 102.011 29.704 102.05 29.704C102.282 29.7427 102.572 29.82 102.92 29.936C103.307 30.052 103.635 30.2067 103.906 30.4C104.177 30.5933 104.312 30.8447 104.312 31.154C104.312 31.502 104.138 31.9853 103.79 32.604C103.442 33.184 103.055 33.8607 102.63 34.634C102.205 35.4073 101.818 36.2 101.47 37.012C101.122 37.7853 100.948 38.52 100.948 39.216C100.948 39.796 101.103 40.376 101.412 40.956C101.721 41.4973 102.224 41.768 102.92 41.768C103.964 41.768 105.337 41.014 107.038 39.506C108.739 37.9593 110.46 35.6587 112.2 32.604L112.78 33.184C111.968 35.272 110.924 37.1087 109.648 38.694C108.372 40.2793 106.999 41.5167 105.53 42.406C104.099 43.2953 102.688 43.74 101.296 43.74C99.8653 43.74 98.802 43.3147 98.106 42.464C97.4486 41.6133 97.12 40.6853 97.12 39.68C97.12 39.448 97.1393 39.1967 97.178 38.926C97.2166 38.6167 97.2553 38.3073 97.294 37.998C95.6313 40.2407 94.104 41.9227 92.712 43.044C91.3586 44.1653 89.9666 44.726 88.536 44.726ZM125.094 47.046C125.326 46.5047 125.964 45.074 127.008 42.754C128.052 40.4727 129.405 37.4953 131.068 33.822C132.769 30.11 134.664 25.9147 136.752 21.236C138.879 16.5187 141.121 11.5307 143.48 6.272C143.596 6.00133 143.712 5.65333 143.828 5.228C143.983 4.764 144.06 4.31933 144.06 3.894C144.06 3.46866 143.925 3.12066 143.654 2.85C143.422 2.54067 142.9 2.386 142.088 2.386C140.464 2.386 139.111 2.94666 138.028 4.068C136.984 5.15066 136.191 6.504 135.65 8.128C135.147 9.752 134.896 11.3567 134.896 12.942C134.896 13.3287 134.896 13.6573 134.896 13.928C134.935 14.1987 134.973 14.4693 135.012 14.74C134.277 14.74 133.678 14.4887 133.214 13.986C132.789 13.4447 132.46 12.8067 132.228 12.072C132.035 11.2987 131.938 10.6027 131.938 9.984C131.938 8.708 132.286 7.49 132.982 6.33C133.678 5.17 134.567 4.126 135.65 3.198C136.771 2.27 137.989 1.55467 139.304 1.052C140.657 0.510665 141.972 0.239998 143.248 0.239998C144.524 0.239998 145.587 0.607332 146.438 1.342C147.327 2.038 147.985 3.314 148.41 5.17C148.874 7.026 149.106 9.71333 149.106 13.232C149.106 15.6293 149.009 18.1813 148.816 20.888C148.661 23.5947 148.487 26.2627 148.294 28.892C148.101 31.5213 147.965 33.9187 147.888 36.084C148.507 33.7253 149.377 31.212 150.498 28.544C151.658 25.876 152.915 23.2273 154.268 20.598C155.66 17.93 157.033 15.436 158.386 13.116C159.739 10.796 160.957 8.78533 162.04 7.084C163.123 5.38266 163.915 4.14533 164.418 3.372C164.959 2.59866 165.423 2.01866 165.81 1.632C166.197 1.20667 166.699 0.993999 167.318 0.993999C167.859 0.993999 168.478 1.12933 169.174 1.4C168.903 2.096 168.517 3.14 168.014 4.532C167.55 5.88533 167.067 7.548 166.564 9.52C165.945 11.8787 165.327 14.566 164.708 17.582C164.089 20.5593 163.509 23.5947 162.968 26.688C162.465 29.7813 162.059 32.7007 161.75 35.446C161.441 38.1527 161.286 40.434 161.286 42.29C161.286 43.1407 161.325 43.798 161.402 44.262C161.479 44.726 161.576 45.132 161.692 45.48C161.847 45.8667 162.001 46.3887 162.156 47.046C160.841 47.046 159.836 46.8333 159.14 46.408C158.444 45.9827 157.98 45.2867 157.748 44.32C157.516 43.392 157.4 42.1353 157.4 40.55C157.4 35.9487 157.98 31.0187 159.14 25.76C160.339 20.4627 161.692 14.972 163.2 9.288C162.079 10.7187 160.899 12.536 159.662 14.74C158.463 16.9053 157.245 19.264 156.008 21.816C154.809 24.3293 153.649 26.862 152.528 29.414C151.445 31.9273 150.479 34.2667 149.628 36.432C148.777 38.5973 148.12 40.3953 147.656 41.826C147.424 41.9033 147.269 41.9613 147.192 42C147.115 42.0387 146.979 42.058 146.786 42.058C145.742 42.058 145.046 41.4393 144.698 40.202C144.389 38.9647 144.234 37.2247 144.234 34.982C144.234 33.3967 144.273 31.5213 144.35 29.356C144.466 27.152 144.582 24.89 144.698 22.57C144.814 20.25 144.911 18.0267 144.988 15.9C145.104 13.7347 145.162 11.8787 145.162 10.332C145.162 9.55866 145.143 8.92066 145.104 8.418C145.104 7.91533 145.085 7.47067 145.046 7.084C141.953 14.276 139.362 20.424 137.274 25.528C135.186 30.5933 133.427 34.7113 131.996 37.882C130.604 41.0527 129.367 43.3727 128.284 44.842C127.201 46.3113 126.138 47.046 125.094 47.046ZM171.684 44.726C170.486 44.726 169.48 44.32 168.668 43.508C167.818 42.7347 167.392 41.536 167.392 39.912C167.392 38.52 167.702 37.0313 168.32 35.446C168.939 33.822 169.79 32.2367 170.872 30.69C171.955 29.1047 173.173 27.674 174.526 26.398C175.918 25.0833 177.368 24.0393 178.876 23.266C180.423 22.4927 181.95 22.106 183.458 22.106C184.966 22.106 186.223 22.512 187.228 23.324C188.234 24.0973 188.736 25.1413 188.736 26.456C188.736 27.4227 188.466 28.08 187.924 28.428C187.422 28.776 186.745 28.95 185.894 28.95C185.972 28.6407 186.03 28.312 186.068 27.964C186.146 27.5773 186.184 27.2293 186.184 26.92C186.184 26.0307 185.972 25.2767 185.546 24.658C185.121 24.0007 184.386 23.672 183.342 23.672C182.26 23.672 181.158 24.0587 180.036 24.832C178.915 25.5667 177.832 26.572 176.788 27.848C175.744 29.0853 174.816 30.4387 174.004 31.908C173.192 33.3773 172.554 34.8273 172.09 36.258C171.626 37.6887 171.394 38.9647 171.394 40.086C171.394 41.594 171.916 42.348 172.96 42.348C173.85 42.348 174.816 41.942 175.86 41.13C176.904 40.2793 177.968 39.216 179.05 37.94C180.172 36.6253 181.235 35.272 182.24 33.88C183.246 32.488 184.135 31.212 184.908 30.052C185.063 29.82 185.16 29.704 185.198 29.704C185.43 29.7427 185.72 29.82 186.068 29.936C186.455 30.052 186.784 30.2067 187.054 30.4C187.325 30.5933 187.46 30.8447 187.46 31.154C187.46 31.502 187.286 31.9853 186.938 32.604C186.59 33.184 186.204 33.8607 185.778 34.634C185.353 35.4073 184.966 36.2 184.618 37.012C184.27 37.7853 184.096 38.52 184.096 39.216C184.096 39.796 184.251 40.376 184.56 40.956C184.87 41.4973 185.372 41.768 186.068 41.768C187.112 41.768 188.485 41.014 190.186 39.506C191.888 37.9593 193.608 35.6587 195.348 32.604L195.928 33.184C195.116 35.272 194.072 37.1087 192.796 38.694C191.52 40.2793 190.148 41.5167 188.678 42.406C187.248 43.2953 185.836 43.74 184.444 43.74C183.014 43.74 181.95 43.3147 181.254 42.464C180.597 41.6133 180.268 40.6853 180.268 39.68C180.268 39.448 180.288 39.1967 180.326 38.926C180.365 38.6167 180.404 38.3073 180.442 37.998C178.78 40.2407 177.252 41.9227 175.86 43.044C174.507 44.1653 173.115 44.726 171.684 44.726ZM199.092 44.668C197.429 44.668 196.153 44.1847 195.264 43.218C194.375 42.2513 193.93 40.8207 193.93 38.926C193.93 37.2247 194.239 35.1367 194.858 32.662C195.515 30.1487 196.327 27.5773 197.294 24.948C196.907 24.8707 196.54 24.8127 196.192 24.774C195.844 24.6967 195.515 24.6 195.206 24.484V23.44C195.515 23.4787 195.883 23.5173 196.308 23.556C196.733 23.5947 197.217 23.6333 197.758 23.672C198.57 21.584 199.44 19.5733 200.368 17.64C201.296 15.668 202.205 13.928 203.094 12.42C204.022 10.8733 204.892 9.65533 205.704 8.766C206.555 7.838 207.27 7.374 207.85 7.374C208.159 7.374 208.43 7.49 208.662 7.722C208.933 7.91533 209.068 8.22466 209.068 8.65C209.068 9.30733 208.662 10.39 207.85 11.898C207.038 13.3673 206.033 15.1267 204.834 17.176C203.635 19.2253 202.475 21.4487 201.354 23.846C201.702 23.846 202.05 23.846 202.398 23.846C202.785 23.846 203.152 23.846 203.5 23.846C204.776 23.846 206.11 23.8267 207.502 23.788C208.933 23.7493 210.363 23.6527 211.794 23.498V24.542C209.667 24.774 207.753 24.948 206.052 25.064C204.389 25.18 202.901 25.238 201.586 25.238C201.431 25.238 201.277 25.238 201.122 25.238C201.006 25.238 200.871 25.238 200.716 25.238C199.827 27.2873 199.073 29.3947 198.454 31.56C197.835 33.7253 197.526 35.8327 197.526 37.882C197.526 39.5447 197.777 40.7433 198.28 41.478C198.783 42.174 199.614 42.522 200.774 42.522C202.785 42.522 204.757 41.6327 206.69 39.854C208.623 38.0753 210.325 35.6587 211.794 32.604L212.548 33.184C211.62 35.3493 210.441 37.302 209.01 39.042C207.618 40.782 206.071 42.1547 204.37 43.16C202.669 44.1653 200.909 44.668 199.092 44.668ZM216.907 45.248C215.051 45.248 213.505 44.6293 212.267 43.392C211.03 42.1547 210.411 40.2987 210.411 37.824C210.411 35.8907 210.779 34.0153 211.513 32.198C212.287 30.342 213.292 28.6793 214.529 27.21C215.767 25.7407 217.139 24.5807 218.647 23.73C220.155 22.8407 221.644 22.396 223.113 22.396C224.699 22.396 225.781 22.86 226.361 23.788C226.941 24.716 227.231 25.6827 227.231 26.688C227.231 27.8093 226.961 28.7953 226.419 29.646C225.917 30.4967 225.221 30.922 224.331 30.922C223.674 30.922 223.113 30.632 222.649 30.052C223.229 29.7427 223.732 29.124 224.157 28.196C224.583 27.2293 224.795 26.3207 224.795 25.47C224.795 25.006 224.699 24.658 224.505 24.426C224.351 24.1553 224.022 24.02 223.519 24.02C222.475 24.02 221.393 24.484 220.271 25.412C219.189 26.34 218.164 27.5387 217.197 29.008C216.269 30.4773 215.496 32.024 214.877 33.648C214.297 35.272 214.007 36.7993 214.007 38.23C214.007 39.4287 214.297 40.5307 214.877 41.536C215.457 42.5413 216.579 43.044 218.241 43.044C219.788 43.044 221.335 42.6187 222.881 41.768C224.467 40.9173 225.936 39.6993 227.289 38.114C228.643 36.5287 229.725 34.6727 230.537 32.546L231.291 33.126C230.402 35.446 229.184 37.534 227.637 39.39C226.091 41.2073 224.389 42.638 222.533 43.682C220.677 44.726 218.802 45.248 216.907 45.248ZM232.175 44.204C231.441 44.204 230.861 43.5853 230.435 42.348C230.01 41.1107 229.797 39.7187 229.797 38.172C229.797 36.316 230.107 34.112 230.725 31.56C231.344 29.008 232.156 26.3207 233.161 23.498C234.167 20.6753 235.288 17.9107 236.525 15.204C237.801 12.4973 239.097 10.042 240.411 7.838C241.726 5.634 242.963 3.87467 244.123 2.56C245.283 1.24533 246.289 0.587997 247.139 0.587997C247.835 0.587997 248.319 1.01333 248.589 1.864C248.899 2.676 249.053 3.46867 249.053 4.242C249.053 5.32467 248.802 6.63933 248.299 8.186C247.835 9.73266 247.178 11.3953 246.327 13.174C245.477 14.914 244.491 16.6347 243.369 18.336C242.248 20.0373 241.03 21.6033 239.715 23.034C238.401 24.426 237.067 25.528 235.713 26.34C235.249 27.4613 234.843 28.718 234.495 30.11C234.186 31.502 233.954 32.8747 233.799 34.228C233.645 35.5427 233.567 36.722 233.567 37.766C233.567 38.1913 233.567 38.5587 233.567 38.868C233.606 39.1773 233.645 39.4673 233.683 39.738C234.225 38.1527 234.805 36.6253 235.423 35.156C236.081 33.648 236.777 32.2753 237.511 31.038C238.246 29.762 239.019 28.66 239.831 27.732C240.682 26.7653 241.571 26.0307 242.499 25.528C243.427 24.9867 244.413 24.716 245.457 24.716C246.54 24.716 247.391 24.9867 248.009 25.528C248.667 26.0307 249.131 26.688 249.401 27.5C249.711 28.2733 249.865 29.0853 249.865 29.936C249.865 31.1347 249.653 32.2947 249.227 33.416C248.841 34.5373 248.435 35.62 248.009 36.664C247.584 37.708 247.371 38.7133 247.371 39.68C247.371 40.4533 247.526 41.014 247.835 41.362C248.183 41.71 248.609 41.884 249.111 41.884C250.001 41.884 250.987 41.4587 252.069 40.608C253.191 39.7573 254.293 38.636 255.375 37.244C256.458 35.8133 257.386 34.2667 258.159 32.604L258.913 33.3C258.101 35.1947 257.115 36.9153 255.955 38.462C254.795 39.97 253.519 41.1687 252.127 42.058C250.735 42.9473 249.285 43.392 247.777 43.392C246.463 43.392 245.457 43.044 244.761 42.348C244.104 41.652 243.775 40.782 243.775 39.738C243.775 38.926 243.93 38.0173 244.239 37.012C244.549 36.0067 244.839 34.982 245.109 33.938C245.419 32.894 245.573 31.908 245.573 30.98C245.573 29.9747 245.361 29.2593 244.935 28.834C244.51 28.4087 243.988 28.196 243.369 28.196C242.403 28.196 241.533 28.5827 240.759 29.356C239.986 30.1293 239.271 31.1347 238.613 32.372C237.995 33.5707 237.395 34.8467 236.815 36.2C236.274 37.5533 235.752 38.8487 235.249 40.086C234.747 41.2847 234.244 42.2707 233.741 43.044C233.239 43.8173 232.717 44.204 232.175 44.204ZM236.467 24.078C237.55 23.2273 238.594 22.1447 239.599 20.83C240.643 19.5153 241.61 18.1233 242.499 16.654C243.389 15.146 244.181 13.6767 244.877 12.246C245.573 10.8153 246.115 9.52 246.501 8.36C246.888 7.2 247.081 6.33 247.081 5.75C247.081 5.55666 247.062 5.44066 247.023 5.402C246.985 5.32467 246.927 5.286 246.849 5.286C246.579 5.286 246.018 5.82733 245.167 6.91C244.355 7.954 243.408 9.36533 242.325 11.144C241.243 12.9227 240.179 14.9333 239.135 17.176C238.091 19.4187 237.202 21.7193 236.467 24.078ZM262.427 25.122C263.085 23.498 263.819 21.6227 264.631 19.496C265.443 17.3307 266.313 15.1267 267.241 12.884C268.169 10.6413 269.097 8.57267 270.025 6.678C270.992 4.74466 271.92 3.198 272.809 2.038C273.699 0.839332 274.511 0.239998 275.245 0.239998C275.555 0.239998 275.825 0.375331 276.057 0.645997C276.289 0.877998 276.405 1.18733 276.405 1.574C276.405 2.11533 276.115 3.12066 275.535 4.59C274.994 6.02066 274.24 7.78 273.273 9.868C272.345 11.9173 271.282 14.1213 270.083 16.48C268.923 18.8387 267.705 21.236 266.429 23.672C265.153 26.0693 263.897 28.3507 262.659 30.516C261.461 32.6427 260.359 34.4987 259.353 36.084C259.315 36.0453 259.276 36.026 259.237 36.026C259.237 35.9873 259.218 35.9487 259.179 35.91C259.566 34.17 259.953 32.5847 260.339 31.154C260.765 29.7233 261.171 28.5053 261.557 27.5C261.944 26.456 262.234 25.6633 262.427 25.122ZM257.671 42.58C257.169 42.58 256.743 42.4447 256.395 42.174C256.009 41.942 255.815 41.5553 255.815 41.014C255.815 40.3567 256.202 39.796 256.975 39.332C257.71 38.868 258.445 38.636 259.179 38.636C259.643 38.636 260.011 38.7327 260.281 38.926C260.552 39.1193 260.687 39.4867 260.687 40.028C260.687 40.608 260.378 41.188 259.759 41.768C259.141 42.3093 258.445 42.58 257.671 42.58Z" fill="white"/>
</svg>
