<svg width="226" height="226" viewBox="0 0 226 226" fill="none" xmlns="http://www.w3.org/2000/svg">
<g clip-path="url(#clip0_304_3)">
<path d="M42.375 113C55.3767 113 65.9166 102.46 65.9166 89.4584C65.9166 76.4566 55.3767 65.9167 42.375 65.9167C29.3733 65.9167 18.8333 76.4566 18.8333 89.4584C18.8333 102.46 29.3733 113 42.375 113Z" fill="black"/>
<path d="M84.75 75.3333C97.7517 75.3333 108.292 64.7934 108.292 51.7917C108.292 38.79 97.7517 28.25 84.75 28.25C71.7483 28.25 61.2083 38.79 61.2083 51.7917C61.2083 64.7934 71.7483 75.3333 84.75 75.3333Z" fill="black"/>
<path d="M141.25 75.3333C154.252 75.3333 164.792 64.7934 164.792 51.7917C164.792 38.79 154.252 28.25 141.25 28.25C128.248 28.25 117.708 38.79 117.708 51.7917C117.708 64.7934 128.248 75.3333 141.25 75.3333Z" fill="black"/>
<path d="M183.625 113C196.627 113 207.167 102.46 207.167 89.4584C207.167 76.4566 196.627 65.9167 183.625 65.9167C170.623 65.9167 160.083 76.4566 160.083 89.4584C160.083 102.46 170.623 113 183.625 113Z" fill="black"/>
<path d="M163.285 139.932C155.092 130.327 148.218 122.134 139.932 112.529C135.6 107.444 130.044 102.359 123.452 100.099C122.417 99.7225 121.381 99.44 120.345 99.2517C117.991 98.875 115.448 98.875 113 98.875C110.552 98.875 108.009 98.875 105.561 99.3458C104.525 99.5342 103.489 99.8167 102.453 100.193C95.8616 102.453 90.4 107.538 85.9741 112.623C77.7816 122.228 70.9075 130.421 62.6208 140.026C50.285 152.362 35.1242 166.016 37.9492 185.132C40.68 194.737 47.5542 204.247 59.89 206.978C66.7642 208.391 88.705 202.835 112.058 202.835H113.753C137.107 202.835 159.047 208.297 165.922 206.978C178.257 204.247 185.132 194.642 187.862 185.132C190.782 165.922 175.621 152.267 163.285 139.932Z" fill="black"/>
</g>
<defs>
<clipPath id="clip0_304_3">
<rect width="226" height="226" fill="white"/>
</clipPath>
</defs>
</svg>
